<svg width="480" height="419" viewBox="0 0 480 419" fill="none" xmlns="http://www.w3.org/2000/svg">
<g filter="url(#filter0_d_768_11562)">
<rect width="480" height="411" rx="14" fill="white"/>
<rect x="2" y="2" width="476" height="407" rx="12" stroke="#E6E7EF" stroke-width="4"/>
</g>
<rect x="20" y="112" width="60" height="276" fill="white"/>
<rect x="168.191" y="224.708" width="60" height="158.942" fill="white"/>
<rect x="98.1914" y="224.708" width="60" height="158.942" fill="white"/>
<rect x="248.191" y="224.708" width="60" height="158.942" fill="white"/>
<rect x="388.191" y="224.708" width="60" height="158.942" fill="white"/>
<rect x="318.191" y="308.815" width="60" height="74.8341" fill="white"/>
<rect x="315.751" y="115.748" width="60" height="74.8341" fill="white"/>
<rect x="247" y="112" width="60" height="74.8341" fill="white"/>
<rect x="35.7676" y="112" width="15" height="25" rx="2" fill="#E6E7EF"/>
<rect x="35.7676" y="140.665" width="15" height="25" rx="2" fill="#E6E7EF"/>
<rect x="35.7676" y="168.33" width="15" height="25" rx="2" fill="#E6E7EF"/>
<rect x="54.7529" y="112" width="15" height="25" rx="2" fill="#E6E7EF"/>
<rect x="54.7529" y="140.665" width="15" height="25" rx="2" fill="#E6E7EF"/>
<rect x="54.7529" y="168.33" width="15" height="25" rx="2" fill="#E6E7EF"/>
<rect x="256.904" y="112" width="15" height="25" rx="2" fill="#E6E7EF"/>
<rect x="256.904" y="140.665" width="15" height="25" rx="2" fill="#E6E7EF"/>
<rect x="256.904" y="168.33" width="15" height="25" rx="2" fill="#E6E7EF"/>
<rect x="275.89" y="112" width="15" height="25" rx="2" fill="#E6E7EF"/>
<rect x="275.89" y="140.665" width="15" height="25" rx="2" fill="#E6E7EF"/>
<rect x="275.89" y="168.33" width="15" height="25" rx="2" fill="#E6E7EF"/>
<rect x="330.751" y="112" width="15" height="25" rx="2" fill="#E6E7EF"/>
<rect x="330.751" y="140.665" width="15" height="25" rx="2" fill="#E6E7EF"/>
<rect x="330.751" y="168.33" width="15" height="25" rx="2" fill="#E6E7EF"/>
<rect x="349.736" y="112" width="15" height="25" rx="2" fill="#E6E7EF"/>
<rect x="349.736" y="140.665" width="15" height="25" rx="2" fill="#E6E7EF"/>
<rect x="349.736" y="168.33" width="15" height="25" rx="2" fill="#E6E7EF"/>
<rect x="330.751" y="319.115" width="15" height="25" rx="2" fill="#E6E7EF"/>
<rect x="330.751" y="346.78" width="15" height="25" rx="2" fill="#E6E7EF"/>
<rect x="349.736" y="319.115" width="15" height="25" rx="2" fill="#E6E7EF"/>
<rect x="349.736" y="346.78" width="15" height="25" rx="2" fill="#E6E7EF"/>
<rect x="35.7676" y="233.119" width="15" height="25" rx="2" fill="#E6E7EF"/>
<rect x="35.7676" y="261.784" width="15" height="25" rx="2" fill="#E6E7EF"/>
<rect x="35.7676" y="290.449" width="15" height="25" rx="2" fill="#E6E7EF"/>
<rect x="35.7676" y="318.147" width="15" height="25" rx="2" fill="#E6E7EF"/>
<rect x="35.7676" y="346.749" width="15" height="25" rx="2" fill="#E6E7EF"/>
<rect x="54.7529" y="233.119" width="15" height="25" rx="2" fill="#E6E7EF"/>
<rect x="54.7529" y="261.784" width="15" height="25" rx="2" fill="#E6E7EF"/>
<rect x="54.7529" y="290.449" width="15" height="25" rx="2" fill="#E6E7EF"/>
<rect x="54.7529" y="318.147" width="15" height="25" rx="2" fill="#E6E7EF"/>
<rect x="54.7529" y="346.749" width="15" height="25" rx="2" fill="#E6E7EF"/>
<rect x="183.191" y="233.119" width="15" height="25" rx="2" fill="#E6E7EF"/>
<rect x="183.191" y="261.784" width="15" height="25" rx="2" fill="#E6E7EF"/>
<rect x="183.191" y="290.449" width="15" height="25" rx="2" fill="#E6E7EF"/>
<rect x="183.191" y="318.147" width="15" height="25" rx="2" fill="#E6E7EF"/>
<rect x="183.191" y="346.749" width="15" height="25" rx="2" fill="#E6E7EF"/>
<rect x="202.177" y="233.119" width="15" height="25" rx="2" fill="#E6E7EF"/>
<rect x="202.177" y="261.784" width="15" height="25" rx="2" fill="#E6E7EF"/>
<rect x="202.177" y="290.449" width="15" height="25" rx="2" fill="#E6E7EF"/>
<rect x="202.177" y="318.147" width="15" height="25" rx="2" fill="#E6E7EF"/>
<rect x="202.177" y="346.749" width="15" height="25" rx="2" fill="#E6E7EF"/>
<rect x="109.479" y="233.119" width="15" height="25" rx="2" fill="#E6E7EF"/>
<rect x="109.479" y="261.784" width="15" height="25" rx="2" fill="#E6E7EF"/>
<rect x="109.479" y="290.449" width="15" height="25" rx="2" fill="#E6E7EF"/>
<rect x="109.479" y="318.147" width="15" height="25" rx="2" fill="#E6E7EF"/>
<rect x="109.479" y="346.749" width="15" height="25" rx="2" fill="#E6E7EF"/>
<rect x="128.465" y="233.119" width="15" height="25" rx="2" fill="#E6E7EF"/>
<rect x="128.465" y="261.784" width="15" height="25" rx="2" fill="#E6E7EF"/>
<rect x="128.465" y="290.449" width="15" height="25" rx="2" fill="#E6E7EF"/>
<rect x="128.465" y="318.147" width="15" height="25" rx="2" fill="#E6E7EF"/>
<rect x="128.465" y="346.749" width="15" height="25" rx="2" fill="#E6E7EF"/>
<rect x="256.904" y="233.119" width="15" height="25" rx="2" fill="#E6E7EF"/>
<rect x="256.904" y="261.784" width="15" height="25" rx="2" fill="#E6E7EF"/>
<rect x="256.904" y="290.449" width="15" height="25" rx="2" fill="#E6E7EF"/>
<rect x="256.904" y="318.147" width="15" height="25" rx="2" fill="#E6E7EF"/>
<rect x="256.904" y="346.749" width="15" height="25" rx="2" fill="#E6E7EF"/>
<rect x="275.89" y="233.119" width="15" height="25" rx="2" fill="#E6E7EF"/>
<rect x="275.89" y="261.784" width="15" height="25" rx="2" fill="#E6E7EF"/>
<rect x="275.89" y="290.449" width="15" height="25" rx="2" fill="#E6E7EF"/>
<rect x="275.89" y="318.147" width="15" height="25" rx="2" fill="#E6E7EF"/>
<rect x="275.89" y="346.749" width="15" height="25" rx="2" fill="#E6E7EF"/>
<rect x="404.329" y="233.149" width="15" height="25" rx="2" fill="#E6E7EF"/>
<rect x="404.329" y="261.814" width="15" height="25" rx="2" fill="#E6E7EF"/>
<rect x="404.329" y="290.479" width="15" height="25" rx="2" fill="#E6E7EF"/>
<rect x="404.329" y="318.177" width="15" height="25" rx="2" fill="#E6E7EF"/>
<rect x="404.329" y="346.78" width="15" height="25" rx="2" fill="#E6E7EF"/>
<rect x="423.314" y="233.149" width="15" height="25" rx="2" fill="#E6E7EF"/>
<rect x="423.314" y="261.814" width="15" height="25" rx="2" fill="#E6E7EF"/>
<rect x="423.314" y="290.479" width="15" height="25" rx="2" fill="#E6E7EF"/>
<rect x="423.314" y="318.177" width="15" height="25" rx="2" fill="#E6E7EF"/>
<rect x="423.314" y="346.78" width="15" height="25" rx="2" fill="#E6E7EF"/>
<rect x="102.75" y="112.75" width="55.5" height="47.5" rx="1.25" fill="#F5F5F8" stroke="#D1D3D9" stroke-width="1.5"/>
<rect x="165.75" y="112.75" width="55.5" height="47.5" rx="1.25" fill="#F5F5F8" stroke="#D1D3D9" stroke-width="1.5"/>
<rect x="137.75" y="175.75" width="47.5" height="14.5" rx="1.25" fill="#F5F5F8" stroke="#D1D3D9" stroke-width="1.5"/>
<rect x="313.48" y="261.36" width="60" height="25" rx="2" fill="#F5F5F8"/>
<rect x="400.561" y="111.576" width="36.3866" height="45.9284" rx="1" fill="white" stroke="#D1D3D9" stroke-width="2"/>
<path d="M421.197 122.998V127.761V132.524L425.96 127.761L421.197 122.998Z" fill="#E9EAF4"/>
<path d="M412.893 126.761C412.34 126.761 411.893 127.209 411.893 127.761C411.893 128.313 412.34 128.761 412.893 128.761V126.761ZM421.197 122.998L421.904 122.291C421.618 122.005 421.188 121.919 420.815 122.074C420.441 122.229 420.197 122.593 420.197 122.998H421.197ZM425.96 127.761L426.667 128.468C427.058 128.078 427.058 127.444 426.667 127.054L425.96 127.761ZM421.197 132.524H420.197C420.197 132.929 420.441 133.293 420.815 133.448C421.188 133.603 421.618 133.517 421.904 133.231L421.197 132.524ZM412.893 128.761H421.197V126.761H412.893V128.761ZM422.197 127.761V122.998H420.197V127.761H422.197ZM420.49 123.705L425.253 128.468L426.667 127.054L421.904 122.291L420.49 123.705ZM425.253 127.054L420.49 131.817L421.904 133.231L426.667 128.468L425.253 127.054ZM422.197 132.524V127.761H420.197V132.524H422.197Z" fill="#D1D3D9"/>
<path d="M417.655 136.083V140.846V145.609L412.892 140.846L417.655 136.083Z" fill="#E9EAF4"/>
<path d="M425.96 139.846C426.512 139.846 426.96 140.294 426.96 140.846C426.96 141.398 426.512 141.846 425.96 141.846V139.846ZM417.655 136.083L416.948 135.376C417.234 135.09 417.664 135.004 418.038 135.159C418.412 135.314 418.655 135.678 418.655 136.083H417.655ZM412.892 140.846L412.185 141.553C411.795 141.162 411.795 140.529 412.185 140.139L412.892 140.846ZM417.655 145.609H418.655C418.655 146.013 418.412 146.378 418.038 146.533C417.664 146.688 417.234 146.602 416.948 146.316L417.655 145.609ZM425.96 141.846H417.655V139.846H425.96V141.846ZM416.655 140.846V136.083H418.655V140.846H416.655ZM418.362 136.79L413.599 141.553L412.185 140.139L416.948 135.376L418.362 136.79ZM413.599 140.139L418.362 144.902L416.948 146.316L412.185 141.553L413.599 140.139ZM416.655 145.609V140.846H418.655V145.609H416.655Z" fill="#D1D3D9"/>
<rect x="400.561" y="170.043" width="36.3866" height="45.9284" rx="1" fill="white" stroke="#D1D3D9" stroke-width="2"/>
<path d="M421.197 181.465V186.228V190.991L425.96 186.228L421.197 181.465Z" fill="#E9EAF4"/>
<path d="M412.893 185.228C412.34 185.228 411.893 185.675 411.893 186.228C411.893 186.78 412.34 187.228 412.893 187.228V185.228ZM421.197 181.465L421.904 180.757C421.618 180.471 421.188 180.386 420.815 180.541C420.441 180.696 420.197 181.06 420.197 181.465H421.197ZM425.96 186.228L426.667 186.935C427.058 186.544 427.058 185.911 426.667 185.521L425.96 186.228ZM421.197 190.991H420.197C420.197 191.395 420.441 191.76 420.815 191.915C421.188 192.07 421.618 191.984 421.904 191.698L421.197 190.991ZM412.893 187.228H421.197V185.228H412.893V187.228ZM422.197 186.228V181.465H420.197V186.228H422.197ZM420.49 182.172L425.253 186.935L426.667 185.521L421.904 180.757L420.49 182.172ZM425.253 185.521L420.49 190.284L421.904 191.698L426.667 186.935L425.253 185.521ZM422.197 190.991V186.228H420.197V190.991H422.197Z" fill="#D1D3D9"/>
<path d="M417.655 194.55V199.313V204.076L412.892 199.313L417.655 194.55Z" fill="#E9EAF4"/>
<path d="M425.96 198.313C426.512 198.313 426.96 198.76 426.96 199.313C426.96 199.865 426.512 200.313 425.96 200.313V198.313ZM417.655 194.55L416.948 193.842C417.234 193.556 417.664 193.471 418.038 193.626C418.412 193.78 418.655 194.145 418.655 194.55H417.655ZM412.892 199.313L412.185 200.02C411.795 199.629 411.795 198.996 412.185 198.606L412.892 199.313ZM417.655 204.076H418.655C418.655 204.48 418.412 204.845 418.038 205C417.664 205.154 417.234 205.069 416.948 204.783L417.655 204.076ZM425.96 200.313H417.655V198.313H425.96V200.313ZM416.655 199.313V194.55H418.655V199.313H416.655ZM418.362 195.257L413.599 200.02L412.185 198.606L416.948 193.842L418.362 195.257ZM413.599 198.606L418.362 203.369L416.948 204.783L412.185 200.02L413.599 198.606ZM416.655 204.076V199.313H418.655V204.076H416.655Z" fill="#D1D3D9"/>
<rect x="4" y="89" width="472" height="2" fill="#E6E7EF"/>
<path d="M173.439 40.218L165.761 50.118V52.56H173.351V55.926H175.793V52.56H178.125V50.514H175.793V40.218H173.439ZM173.285 43.474H173.351V50.514H167.851L173.285 43.474ZM184.078 40.878L181.57 41.912V44.552H179.524V46.62H181.57V53.044C181.57 53.968 181.79 54.65 182.23 55.134C182.692 55.662 183.418 55.926 184.408 55.926H186.322V53.858H184.826C184.562 53.858 184.386 53.792 184.254 53.66C184.122 53.506 184.078 53.308 184.078 53.044V46.62H186.608V44.552H184.078V40.878ZM189.145 39.91V55.926H191.653V49.568C191.653 48.6 191.873 47.83 192.335 47.214C192.775 46.598 193.391 46.29 194.183 46.29C195.041 46.29 195.679 46.554 196.119 47.104C196.493 47.61 196.691 48.358 196.691 49.326V55.926H199.199V48.886C199.199 47.368 198.869 46.224 198.231 45.454C197.549 44.64 196.515 44.244 195.129 44.244C194.403 44.244 193.765 44.376 193.215 44.662C192.599 44.97 192.071 45.432 191.653 46.07V39.91H189.145ZM214.954 40.218C213.942 40.218 213.15 40.482 212.622 41.054C212.072 41.604 211.808 42.374 211.808 43.342V44.552H209.278V46.598H211.808V55.926H214.316V46.598H217.22V44.552H214.316V43.408C214.316 43.034 214.382 42.77 214.558 42.594C214.734 42.418 214.976 42.33 215.306 42.33H218.782V55.926H221.29V40.218H214.954ZM230.092 44.244C228.354 44.244 226.968 44.794 225.934 45.938C224.878 47.06 224.372 48.49 224.372 50.25C224.372 51.988 224.878 53.418 225.912 54.518C226.968 55.662 228.354 56.234 230.092 56.234C231.808 56.234 233.216 55.662 234.272 54.518C235.284 53.418 235.812 51.988 235.812 50.25C235.812 48.49 235.284 47.06 234.25 45.938C233.194 44.794 231.808 44.244 230.092 44.244ZM230.092 46.29C231.126 46.29 231.94 46.686 232.512 47.522C232.996 48.226 233.26 49.15 233.26 50.25C233.26 51.328 232.996 52.23 232.512 52.956C231.94 53.77 231.126 54.188 230.092 54.188C229.036 54.188 228.244 53.77 227.672 52.956C227.188 52.252 226.946 51.35 226.946 50.25C226.946 49.15 227.188 48.226 227.672 47.522C228.244 46.686 229.036 46.29 230.092 46.29ZM243.944 44.244C242.206 44.244 240.82 44.794 239.786 45.938C238.73 47.06 238.224 48.49 238.224 50.25C238.224 51.988 238.73 53.418 239.764 54.518C240.82 55.662 242.206 56.234 243.944 56.234C245.66 56.234 247.068 55.662 248.124 54.518C249.136 53.418 249.664 51.988 249.664 50.25C249.664 48.49 249.136 47.06 248.102 45.938C247.046 44.794 245.66 44.244 243.944 44.244ZM243.944 46.29C244.978 46.29 245.792 46.686 246.364 47.522C246.848 48.226 247.112 49.15 247.112 50.25C247.112 51.328 246.848 52.23 246.364 52.956C245.792 53.77 244.978 54.188 243.944 54.188C242.888 54.188 242.096 53.77 241.524 52.956C241.04 52.252 240.798 51.35 240.798 50.25C240.798 49.15 241.04 48.226 241.524 47.522C242.096 46.686 242.888 46.29 243.944 46.29ZM257.883 44.244C257.179 44.244 256.585 44.442 256.079 44.86C255.661 45.168 255.309 45.608 255.001 46.18V44.552H252.515V55.926H255.001V49.898C255.001 48.93 255.287 48.16 255.903 47.566C256.431 47.038 257.025 46.796 257.685 46.796C258.213 46.796 258.741 46.862 259.313 47.038V44.53C258.917 44.332 258.433 44.244 257.883 44.244ZM274.978 44.244C273.878 44.244 272.844 44.728 271.898 45.718V44.552H269.39V55.926H271.898V49.106C271.898 48.358 272.118 47.698 272.558 47.17C272.998 46.598 273.57 46.334 274.296 46.334C275.792 46.334 276.54 47.192 276.54 48.93V55.926H279.048V48.974C279.048 48.138 279.246 47.5 279.686 47.038C280.104 46.554 280.61 46.334 281.226 46.334C282.106 46.334 282.722 46.532 283.118 46.95C283.492 47.346 283.69 48.006 283.69 48.908V55.926H286.198V48.468C286.198 47.214 285.802 46.202 285.054 45.41C284.262 44.618 283.294 44.244 282.128 44.244C281.358 44.244 280.72 44.376 280.214 44.64C279.642 44.904 279.092 45.388 278.564 46.092C277.838 44.86 276.65 44.244 274.978 44.244ZM294.663 44.244C293.211 44.244 292.067 44.486 291.231 45.014C290.241 45.586 289.625 46.51 289.383 47.764L291.869 47.962C292.001 47.368 292.331 46.928 292.815 46.642C293.233 46.378 293.783 46.268 294.487 46.268C296.115 46.268 296.929 46.994 296.929 48.49V48.93L294.443 48.996C292.771 49.04 291.473 49.392 290.549 50.052C289.537 50.734 289.053 51.724 289.053 53C289.053 53.946 289.405 54.716 290.109 55.332C290.791 55.926 291.715 56.234 292.903 56.234C293.893 56.234 294.751 56.058 295.477 55.728C296.115 55.42 296.665 55.002 297.105 54.43V55.926H299.437V48.666C299.437 47.28 299.085 46.224 298.381 45.498C297.589 44.662 296.335 44.244 294.663 44.244ZM296.929 50.734V51.306C296.929 52.186 296.577 52.912 295.917 53.484C295.257 54.034 294.443 54.32 293.475 54.32C292.925 54.32 292.485 54.166 292.133 53.902C291.781 53.638 291.627 53.308 291.627 52.912C291.627 51.548 292.617 50.844 294.619 50.8L296.929 50.734ZM308.507 44.244C307.011 44.244 305.867 44.75 305.075 45.762V44.552H302.743V60.282H305.251V54.364C306.175 55.596 307.319 56.234 308.639 56.234C310.267 56.234 311.565 55.64 312.489 54.452C313.347 53.352 313.787 51.966 313.787 50.294C313.787 48.534 313.347 47.126 312.467 46.026C311.499 44.838 310.179 44.244 308.507 44.244ZM308.133 46.268C309.233 46.268 310.047 46.664 310.575 47.456C310.993 48.116 311.213 49.062 311.213 50.294C311.213 51.526 310.971 52.472 310.509 53.132C309.981 53.836 309.145 54.21 308.045 54.21C307.231 54.21 306.571 53.88 306.043 53.22C305.449 52.494 305.163 51.526 305.163 50.338V50.162C305.163 49.018 305.383 48.116 305.867 47.434C306.395 46.642 307.143 46.268 308.133 46.268Z" fill="black" fill-opacity="0.85"/>
<defs>
<filter id="filter0_d_768_11562" x="0" y="0" width="480" height="419" filterUnits="userSpaceOnUse" color-interpolation-filters="sRGB">
<feFlood flood-opacity="0" result="BackgroundImageFix"/>
<feColorMatrix in="SourceAlpha" type="matrix" values="0 0 0 0 0 0 0 0 0 0 0 0 0 0 0 0 0 0 127 0" result="hardAlpha"/>
<feOffset dy="8"/>
<feComposite in2="hardAlpha" operator="out"/>
<feColorMatrix type="matrix" values="0 0 0 0 0.901961 0 0 0 0 0.905882 0 0 0 0 0.937255 0 0 0 1 0"/>
<feBlend mode="normal" in2="BackgroundImageFix" result="effect1_dropShadow_768_11562"/>
<feBlend mode="normal" in="SourceGraphic" in2="effect1_dropShadow_768_11562" result="shape"/>
</filter>
</defs>
</svg>
